<svg width="56" height="52" viewBox="0 0 56 52" fill="none" xmlns="http://www.w3.org/2000/svg">
<path d="M53.3501 20.0352L32.9683 4.98451C29.8865 2.70974 25.7459 2.71174 22.6687 4.98575L2.35142 19.9952L1 18.165L21.3162 3.15553C25.2025 0.282557 30.4291 0.280973 34.3201 3.15388L54.7018 18.2045L53.3501 20.0352Z" fill="url(#paint0_linear_1617_64)"/>
<path d="M53.3501 20.0352L32.9683 4.98451C29.8865 2.70974 25.7459 2.71174 22.6687 4.98575L2.35142 19.9952L1 18.165L21.3162 3.15553C25.2025 0.282557 30.4291 0.280973 34.3201 3.15388L54.7018 18.2045L53.3501 20.0352Z" fill="url(#paint1_linear_1617_64)" fill-opacity="0.7"/>
<path d="M44.9208 45.2862H10.7786V11.1462H13.0547V43.0101H42.6446V11.2106H44.9206L44.9208 45.2862Z" fill="url(#paint2_linear_1617_64)"/>
<path d="M44.9208 45.2862H10.7786V11.1462H13.0547V43.0101H42.6446V11.2106H44.9206L44.9208 45.2862Z" fill="url(#paint3_linear_1617_64)" fill-opacity="0.7"/>
<path d="M11.8594 21.4427H43.7825V23.7187H11.8594V21.4427Z" fill="url(#paint4_linear_1617_64)"/>
<path d="M11.8594 21.4427H43.7825V23.7187H11.8594V21.4427Z" fill="url(#paint5_linear_1617_64)" fill-opacity="0.7"/>
<path d="M22.9262 50.9988C21.8349 50.9988 20.7571 50.6991 19.9146 50.108C18.9021 49.3997 17.2839 49.3985 16.3573 50.0465C14.5646 51.3063 11.8919 51.3055 10.1851 50.1089L10.0918 50.0428L11.4118 48.1882L11.4985 48.2497C12.4165 48.8949 14.0379 48.8945 14.9625 48.246C16.7561 46.9874 19.4279 46.9874 21.1335 48.1845C22.1481 48.8945 23.7674 48.8945 24.692 48.246C26.4835 46.9874 29.1583 46.9874 30.863 48.1845C31.8755 48.894 33.4944 48.8953 34.4203 48.246C36.2138 46.9874 38.8877 46.9874 40.5925 48.1845L40.6858 48.2501C41.6038 48.8953 43.2252 48.8949 44.1498 48.2464L45.5458 50.0473C43.7511 51.3071 41.0784 51.3072 39.3723 50.1088L39.279 50.0432C38.3622 49.3985 36.7408 49.3989 35.815 50.0465C34.0223 51.3063 31.3509 51.3063 29.6441 50.108C28.6315 49.3989 27.0114 49.3989 26.0855 50.0465C25.1786 50.6838 24.0452 50.9988 22.9262 50.9988Z" fill="url(#paint6_linear_1617_64)"/>
<path d="M22.9262 50.9988C21.8349 50.9988 20.7571 50.6991 19.9146 50.108C18.9021 49.3997 17.2839 49.3985 16.3573 50.0465C14.5646 51.3063 11.8919 51.3055 10.1851 50.1089L10.0918 50.0428L11.4118 48.1882L11.4985 48.2497C12.4165 48.8949 14.0379 48.8945 14.9625 48.246C16.7561 46.9874 19.4279 46.9874 21.1335 48.1845C22.1481 48.8945 23.7674 48.8945 24.692 48.246C26.4835 46.9874 29.1583 46.9874 30.863 48.1845C31.8755 48.894 33.4944 48.8953 34.4203 48.246C36.2138 46.9874 38.8877 46.9874 40.5925 48.1845L40.6858 48.2501C41.6038 48.8953 43.2252 48.8949 44.1498 48.2464L45.5458 50.0473C43.7511 51.3071 41.0784 51.3072 39.3723 50.1088L39.279 50.0432C38.3622 49.3985 36.7408 49.3989 35.815 50.0465C34.0223 51.3063 31.3509 51.3063 29.6441 50.108C28.6315 49.3989 27.0114 49.3989 26.0855 50.0465C25.1786 50.6838 24.0452 50.9988 22.9262 50.9988Z" fill="url(#paint7_linear_1617_64)" fill-opacity="0.7"/>
<path d="M2.81641 43.0101H52.8884V45.2861H2.81641V43.0101Z" fill="url(#paint8_linear_1617_64)"/>
<path d="M2.81641 43.0101H52.8884V45.2861H2.81641V43.0101Z" fill="url(#paint9_linear_1617_64)" fill-opacity="0.7"/>
<path d="M33.5405 44.7917H21.0228V30.4923H33.5405V44.7917ZM23.2987 42.5157H31.2645V32.7684H23.2987V42.5157Z" fill="url(#paint10_linear_1617_64)"/>
<path d="M33.5405 44.7917H21.0228V30.4923H33.5405V44.7917ZM23.2987 42.5157H31.2645V32.7684H23.2987V42.5157Z" fill="url(#paint11_linear_1617_64)" fill-opacity="0.7"/>
<path d="M27.8242 16.8904C25.3137 16.8904 23.2721 14.8484 23.2721 12.3383C23.2721 9.82822 25.3137 7.78624 27.8242 7.78624C30.3347 7.78624 32.3763 9.82822 32.3763 12.3383C32.3759 14.8484 30.3347 16.8904 27.8242 16.8904ZM27.8242 10.0623C26.5694 10.0623 25.5482 11.0831 25.5482 12.3383C25.5482 13.5936 26.5694 14.6144 27.8242 14.6144C29.079 14.6144 30.1003 13.5936 30.1003 12.3383C30.1003 11.0831 29.0786 10.0623 27.8242 10.0623Z" fill="url(#paint12_linear_1617_64)"/>
<path d="M27.8242 16.8904C25.3137 16.8904 23.2721 14.8484 23.2721 12.3383C23.2721 9.82822 25.3137 7.78624 27.8242 7.78624C30.3347 7.78624 32.3763 9.82822 32.3763 12.3383C32.3759 14.8484 30.3347 16.8904 27.8242 16.8904ZM27.8242 10.0623C26.5694 10.0623 25.5482 11.0831 25.5482 12.3383C25.5482 13.5936 26.5694 14.6144 27.8242 14.6144C29.079 14.6144 30.1003 13.5936 30.1003 12.3383C30.1003 11.0831 29.0786 10.0623 27.8242 10.0623Z" fill="url(#paint13_linear_1617_64)" fill-opacity="0.7"/>
<path d="M53.3501 20.0352L32.9683 4.98451C29.8865 2.70974 25.7459 2.71174 22.6687 4.98575L2.35142 19.9952L1 18.165L21.3162 3.15553C25.2025 0.282557 30.4291 0.280973 34.3201 3.15388L54.7018 18.2045L53.3501 20.0352Z" stroke="url(#paint14_linear_1617_64)" stroke-width="0.7"/>
<path d="M53.3501 20.0352L32.9683 4.98451C29.8865 2.70974 25.7459 2.71174 22.6687 4.98575L2.35142 19.9952L1 18.165L21.3162 3.15553C25.2025 0.282557 30.4291 0.280973 34.3201 3.15388L54.7018 18.2045L53.3501 20.0352Z" stroke="url(#paint15_linear_1617_64)" stroke-opacity="0.7" stroke-width="0.7"/>
<path d="M44.9208 45.2862H10.7786V11.1462H13.0547V43.0101H42.6446V11.2106H44.9206L44.9208 45.2862Z" stroke="url(#paint16_linear_1617_64)" stroke-width="0.7"/>
<path d="M44.9208 45.2862H10.7786V11.1462H13.0547V43.0101H42.6446V11.2106H44.9206L44.9208 45.2862Z" stroke="url(#paint17_linear_1617_64)" stroke-opacity="0.7" stroke-width="0.7"/>
<path d="M11.8594 21.4427H43.7825V23.7187H11.8594V21.4427Z" stroke="url(#paint18_linear_1617_64)" stroke-width="0.7"/>
<path d="M11.8594 21.4427H43.7825V23.7187H11.8594V21.4427Z" stroke="url(#paint19_linear_1617_64)" stroke-opacity="0.7" stroke-width="0.7"/>
<path d="M22.9262 50.9988C21.8349 50.9988 20.7571 50.6991 19.9146 50.108C18.9021 49.3997 17.2839 49.3985 16.3573 50.0465C14.5646 51.3063 11.8919 51.3055 10.1851 50.1089L10.0918 50.0428L11.4118 48.1882L11.4985 48.2497C12.4165 48.8949 14.0379 48.8945 14.9625 48.246C16.7561 46.9874 19.4279 46.9874 21.1335 48.1845C22.1481 48.8945 23.7674 48.8945 24.692 48.246C26.4835 46.9874 29.1583 46.9874 30.863 48.1845C31.8755 48.894 33.4944 48.8953 34.4203 48.246C36.2138 46.9874 38.8877 46.9874 40.5925 48.1845L40.6858 48.2501C41.6038 48.8953 43.2252 48.8949 44.1498 48.2464L45.5458 50.0473C43.7511 51.3071 41.0784 51.3072 39.3723 50.1088L39.279 50.0432C38.3622 49.3985 36.7408 49.3989 35.815 50.0465C34.0223 51.3063 31.3509 51.3063 29.6441 50.108C28.6315 49.3989 27.0114 49.3989 26.0855 50.0465C25.1786 50.6838 24.0452 50.9988 22.9262 50.9988Z" stroke="url(#paint20_linear_1617_64)" stroke-width="0.7"/>
<path d="M22.9262 50.9988C21.8349 50.9988 20.7571 50.6991 19.9146 50.108C18.9021 49.3997 17.2839 49.3985 16.3573 50.0465C14.5646 51.3063 11.8919 51.3055 10.1851 50.1089L10.0918 50.0428L11.4118 48.1882L11.4985 48.2497C12.4165 48.8949 14.0379 48.8945 14.9625 48.246C16.7561 46.9874 19.4279 46.9874 21.1335 48.1845C22.1481 48.8945 23.7674 48.8945 24.692 48.246C26.4835 46.9874 29.1583 46.9874 30.863 48.1845C31.8755 48.894 33.4944 48.8953 34.4203 48.246C36.2138 46.9874 38.8877 46.9874 40.5925 48.1845L40.6858 48.2501C41.6038 48.8953 43.2252 48.8949 44.1498 48.2464L45.5458 50.0473C43.7511 51.3071 41.0784 51.3072 39.3723 50.1088L39.279 50.0432C38.3622 49.3985 36.7408 49.3989 35.815 50.0465C34.0223 51.3063 31.3509 51.3063 29.6441 50.108C28.6315 49.3989 27.0114 49.3989 26.0855 50.0465C25.1786 50.6838 24.0452 50.9988 22.9262 50.9988Z" stroke="url(#paint21_linear_1617_64)" stroke-opacity="0.7" stroke-width="0.7"/>
<path d="M2.81641 43.0101H52.8884V45.2861H2.81641V43.0101Z" stroke="url(#paint22_linear_1617_64)" stroke-width="0.7"/>
<path d="M2.81641 43.0101H52.8884V45.2861H2.81641V43.0101Z" stroke="url(#paint23_linear_1617_64)" stroke-opacity="0.7" stroke-width="0.7"/>
<path d="M33.5405 44.7917H21.0228V30.4923H33.5405V44.7917ZM23.2987 42.5157H31.2645V32.7684H23.2987V42.5157Z" stroke="url(#paint24_linear_1617_64)" stroke-width="0.7"/>
<path d="M33.5405 44.7917H21.0228V30.4923H33.5405V44.7917ZM23.2987 42.5157H31.2645V32.7684H23.2987V42.5157Z" stroke="url(#paint25_linear_1617_64)" stroke-opacity="0.7" stroke-width="0.7"/>
<path d="M27.8242 16.8904C25.3137 16.8904 23.2721 14.8484 23.2721 12.3383C23.2721 9.82822 25.3137 7.78624 27.8242 7.78624C30.3347 7.78624 32.3763 9.82822 32.3763 12.3383C32.3759 14.8484 30.3347 16.8904 27.8242 16.8904ZM27.8242 10.0623C26.5694 10.0623 25.5482 11.0831 25.5482 12.3383C25.5482 13.5936 26.5694 14.6144 27.8242 14.6144C29.079 14.6144 30.1003 13.5936 30.1003 12.3383C30.1003 11.0831 29.0786 10.0623 27.8242 10.0623Z" stroke="url(#paint26_linear_1617_64)" stroke-width="0.7"/>
<path d="M27.8242 16.8904C25.3137 16.8904 23.2721 14.8484 23.2721 12.3383C23.2721 9.82822 25.3137 7.78624 27.8242 7.78624C30.3347 7.78624 32.3763 9.82822 32.3763 12.3383C32.3759 14.8484 30.3347 16.8904 27.8242 16.8904ZM27.8242 10.0623C26.5694 10.0623 25.5482 11.0831 25.5482 12.3383C25.5482 13.5936 26.5694 14.6144 27.8242 14.6144C29.079 14.6144 30.1003 13.5936 30.1003 12.3383C30.1003 11.0831 29.0786 10.0623 27.8242 10.0623Z" stroke="url(#paint27_linear_1617_64)" stroke-opacity="0.7" stroke-width="0.7"/>
<defs>
<linearGradient id="paint0_linear_1617_64" x1="-8.41786" y1="-7.92856" x2="67.6651" y2="-2.2409" gradientUnits="userSpaceOnUse">
<stop stop-color="#FCF1B5"/>
<stop offset="0.9375" stop-color="#FFBF31"/>
</linearGradient>
<linearGradient id="paint1_linear_1617_64" x1="18.433" y1="-69.7143" x2="113.446" y2="-26.1989" gradientUnits="userSpaceOnUse">
<stop offset="0.0252352" stop-color="white" stop-opacity="0.1"/>
<stop offset="0.448382" stop-color="#C06500" stop-opacity="0.7"/>
<stop offset="0.763925" stop-color="#E47B00" stop-opacity="0.3"/>
<stop offset="1" stop-color="white" stop-opacity="0"/>
</linearGradient>
<linearGradient id="paint2_linear_1617_64" x1="-8.41786" y1="-7.92856" x2="67.6651" y2="-2.2409" gradientUnits="userSpaceOnUse">
<stop stop-color="#FCF1B5"/>
<stop offset="0.9375" stop-color="#FFBF31"/>
</linearGradient>
<linearGradient id="paint3_linear_1617_64" x1="18.433" y1="-69.7143" x2="113.446" y2="-26.1989" gradientUnits="userSpaceOnUse">
<stop offset="0.0252352" stop-color="white" stop-opacity="0.1"/>
<stop offset="0.448382" stop-color="#C06500" stop-opacity="0.7"/>
<stop offset="0.763925" stop-color="#E47B00" stop-opacity="0.3"/>
<stop offset="1" stop-color="white" stop-opacity="0"/>
</linearGradient>
<linearGradient id="paint4_linear_1617_64" x1="-8.41786" y1="-7.92856" x2="67.6651" y2="-2.2409" gradientUnits="userSpaceOnUse">
<stop stop-color="#FCF1B5"/>
<stop offset="0.9375" stop-color="#FFBF31"/>
</linearGradient>
<linearGradient id="paint5_linear_1617_64" x1="18.433" y1="-69.7143" x2="113.446" y2="-26.1989" gradientUnits="userSpaceOnUse">
<stop offset="0.0252352" stop-color="white" stop-opacity="0.1"/>
<stop offset="0.448382" stop-color="#C06500" stop-opacity="0.7"/>
<stop offset="0.763925" stop-color="#E47B00" stop-opacity="0.3"/>
<stop offset="1" stop-color="white" stop-opacity="0"/>
</linearGradient>
<linearGradient id="paint6_linear_1617_64" x1="-8.41786" y1="-7.92856" x2="67.6651" y2="-2.2409" gradientUnits="userSpaceOnUse">
<stop stop-color="#FCF1B5"/>
<stop offset="0.9375" stop-color="#FFBF31"/>
</linearGradient>
<linearGradient id="paint7_linear_1617_64" x1="18.433" y1="-69.7143" x2="113.446" y2="-26.1989" gradientUnits="userSpaceOnUse">
<stop offset="0.0252352" stop-color="white" stop-opacity="0.1"/>
<stop offset="0.448382" stop-color="#C06500" stop-opacity="0.7"/>
<stop offset="0.763925" stop-color="#E47B00" stop-opacity="0.3"/>
<stop offset="1" stop-color="white" stop-opacity="0"/>
</linearGradient>
<linearGradient id="paint8_linear_1617_64" x1="-8.41786" y1="-7.92856" x2="67.6651" y2="-2.2409" gradientUnits="userSpaceOnUse">
<stop stop-color="#FCF1B5"/>
<stop offset="0.9375" stop-color="#FFBF31"/>
</linearGradient>
<linearGradient id="paint9_linear_1617_64" x1="18.433" y1="-69.7143" x2="113.446" y2="-26.1989" gradientUnits="userSpaceOnUse">
<stop offset="0.0252352" stop-color="white" stop-opacity="0.1"/>
<stop offset="0.448382" stop-color="#C06500" stop-opacity="0.7"/>
<stop offset="0.763925" stop-color="#E47B00" stop-opacity="0.3"/>
<stop offset="1" stop-color="white" stop-opacity="0"/>
</linearGradient>
<linearGradient id="paint10_linear_1617_64" x1="-8.41786" y1="-7.92856" x2="67.6651" y2="-2.2409" gradientUnits="userSpaceOnUse">
<stop stop-color="#FCF1B5"/>
<stop offset="0.9375" stop-color="#FFBF31"/>
</linearGradient>
<linearGradient id="paint11_linear_1617_64" x1="18.433" y1="-69.7143" x2="113.446" y2="-26.1989" gradientUnits="userSpaceOnUse">
<stop offset="0.0252352" stop-color="white" stop-opacity="0.1"/>
<stop offset="0.448382" stop-color="#C06500" stop-opacity="0.7"/>
<stop offset="0.763925" stop-color="#E47B00" stop-opacity="0.3"/>
<stop offset="1" stop-color="white" stop-opacity="0"/>
</linearGradient>
<linearGradient id="paint12_linear_1617_64" x1="-8.41786" y1="-7.92856" x2="67.6651" y2="-2.2409" gradientUnits="userSpaceOnUse">
<stop stop-color="#FCF1B5"/>
<stop offset="0.9375" stop-color="#FFBF31"/>
</linearGradient>
<linearGradient id="paint13_linear_1617_64" x1="18.433" y1="-69.7143" x2="113.446" y2="-26.1989" gradientUnits="userSpaceOnUse">
<stop offset="0.0252352" stop-color="white" stop-opacity="0.1"/>
<stop offset="0.448382" stop-color="#C06500" stop-opacity="0.7"/>
<stop offset="0.763925" stop-color="#E47B00" stop-opacity="0.3"/>
<stop offset="1" stop-color="white" stop-opacity="0"/>
</linearGradient>
<linearGradient id="paint14_linear_1617_64" x1="-8.41786" y1="-7.92856" x2="67.6651" y2="-2.2409" gradientUnits="userSpaceOnUse">
<stop stop-color="#FCF1B5"/>
<stop offset="0.9375" stop-color="#FFBF31"/>
</linearGradient>
<linearGradient id="paint15_linear_1617_64" x1="18.433" y1="-69.7143" x2="113.446" y2="-26.1989" gradientUnits="userSpaceOnUse">
<stop offset="0.0252352" stop-color="white" stop-opacity="0.1"/>
<stop offset="0.448382" stop-color="#C06500" stop-opacity="0.7"/>
<stop offset="0.763925" stop-color="#E47B00" stop-opacity="0.3"/>
<stop offset="1" stop-color="white" stop-opacity="0"/>
</linearGradient>
<linearGradient id="paint16_linear_1617_64" x1="-8.41786" y1="-7.92856" x2="67.6651" y2="-2.2409" gradientUnits="userSpaceOnUse">
<stop stop-color="#FCF1B5"/>
<stop offset="0.9375" stop-color="#FFBF31"/>
</linearGradient>
<linearGradient id="paint17_linear_1617_64" x1="18.433" y1="-69.7143" x2="113.446" y2="-26.1989" gradientUnits="userSpaceOnUse">
<stop offset="0.0252352" stop-color="white" stop-opacity="0.1"/>
<stop offset="0.448382" stop-color="#C06500" stop-opacity="0.7"/>
<stop offset="0.763925" stop-color="#E47B00" stop-opacity="0.3"/>
<stop offset="1" stop-color="white" stop-opacity="0"/>
</linearGradient>
<linearGradient id="paint18_linear_1617_64" x1="-8.41786" y1="-7.92856" x2="67.6651" y2="-2.2409" gradientUnits="userSpaceOnUse">
<stop stop-color="#FCF1B5"/>
<stop offset="0.9375" stop-color="#FFBF31"/>
</linearGradient>
<linearGradient id="paint19_linear_1617_64" x1="18.433" y1="-69.7143" x2="113.446" y2="-26.1989" gradientUnits="userSpaceOnUse">
<stop offset="0.0252352" stop-color="white" stop-opacity="0.1"/>
<stop offset="0.448382" stop-color="#C06500" stop-opacity="0.7"/>
<stop offset="0.763925" stop-color="#E47B00" stop-opacity="0.3"/>
<stop offset="1" stop-color="white" stop-opacity="0"/>
</linearGradient>
<linearGradient id="paint20_linear_1617_64" x1="-8.41786" y1="-7.92856" x2="67.6651" y2="-2.2409" gradientUnits="userSpaceOnUse">
<stop stop-color="#FCF1B5"/>
<stop offset="0.9375" stop-color="#FFBF31"/>
</linearGradient>
<linearGradient id="paint21_linear_1617_64" x1="18.433" y1="-69.7143" x2="113.446" y2="-26.1989" gradientUnits="userSpaceOnUse">
<stop offset="0.0252352" stop-color="white" stop-opacity="0.1"/>
<stop offset="0.448382" stop-color="#C06500" stop-opacity="0.7"/>
<stop offset="0.763925" stop-color="#E47B00" stop-opacity="0.3"/>
<stop offset="1" stop-color="white" stop-opacity="0"/>
</linearGradient>
<linearGradient id="paint22_linear_1617_64" x1="-8.41786" y1="-7.92856" x2="67.6651" y2="-2.2409" gradientUnits="userSpaceOnUse">
<stop stop-color="#FCF1B5"/>
<stop offset="0.9375" stop-color="#FFBF31"/>
</linearGradient>
<linearGradient id="paint23_linear_1617_64" x1="18.433" y1="-69.7143" x2="113.446" y2="-26.1989" gradientUnits="userSpaceOnUse">
<stop offset="0.0252352" stop-color="white" stop-opacity="0.1"/>
<stop offset="0.448382" stop-color="#C06500" stop-opacity="0.7"/>
<stop offset="0.763925" stop-color="#E47B00" stop-opacity="0.3"/>
<stop offset="1" stop-color="white" stop-opacity="0"/>
</linearGradient>
<linearGradient id="paint24_linear_1617_64" x1="-8.41786" y1="-7.92856" x2="67.6651" y2="-2.2409" gradientUnits="userSpaceOnUse">
<stop stop-color="#FCF1B5"/>
<stop offset="0.9375" stop-color="#FFBF31"/>
</linearGradient>
<linearGradient id="paint25_linear_1617_64" x1="18.433" y1="-69.7143" x2="113.446" y2="-26.1989" gradientUnits="userSpaceOnUse">
<stop offset="0.0252352" stop-color="white" stop-opacity="0.1"/>
<stop offset="0.448382" stop-color="#C06500" stop-opacity="0.7"/>
<stop offset="0.763925" stop-color="#E47B00" stop-opacity="0.3"/>
<stop offset="1" stop-color="white" stop-opacity="0"/>
</linearGradient>
<linearGradient id="paint26_linear_1617_64" x1="-8.41786" y1="-7.92856" x2="67.6651" y2="-2.2409" gradientUnits="userSpaceOnUse">
<stop stop-color="#FCF1B5"/>
<stop offset="0.9375" stop-color="#FFBF31"/>
</linearGradient>
<linearGradient id="paint27_linear_1617_64" x1="18.433" y1="-69.7143" x2="113.446" y2="-26.1989" gradientUnits="userSpaceOnUse">
<stop offset="0.0252352" stop-color="white" stop-opacity="0.1"/>
<stop offset="0.448382" stop-color="#C06500" stop-opacity="0.7"/>
<stop offset="0.763925" stop-color="#E47B00" stop-opacity="0.3"/>
<stop offset="1" stop-color="white" stop-opacity="0"/>
</linearGradient>
</defs>
</svg>
