<svg width="61" height="52" viewBox="0 0 61 52" fill="none" xmlns="http://www.w3.org/2000/svg">
<path fill-rule="evenodd" clip-rule="evenodd" d="M47.4274 18.8564H53.6741C57.1279 18.8564 59.9271 21.6577 59.9271 25.1143V38.4908C59.9271 41.947 57.1289 44.7486 53.6754 44.7486H52.7843V50.1056C52.7843 50.8279 51.9714 51.2513 51.3796 50.837L42.6817 44.7487H28.6723C25.2248 44.7487 22.4277 41.9478 22.4277 38.4999V34.0347H19.9905L9.48545 40.1628C8.89011 40.5102 8.14272 40.0808 8.14272 39.3917V34.0347H7.25162C3.7985 34.0347 1 31.2383 1 27.7876V7.24707C1 3.7985 3.80198 1 7.25537 1H41.1724C44.6272 1 47.4277 3.79636 47.4277 7.24707L47.4274 18.8564ZM9.92834 37.8372L19.2995 32.3706C19.4362 32.2908 19.5914 32.2489 19.7494 32.2489H41.1783C43.6424 32.2489 45.6414 30.2494 45.6414 27.7875V7.24698C45.6414 4.78294 43.641 2.78558 41.1717 2.78558H7.25476C4.78688 2.78558 2.78505 4.78535 2.78505 7.24698V27.7875C2.78505 30.2516 4.78384 32.2489 7.25101 32.2489H9.03489C9.52804 32.2489 9.92773 32.6486 9.92773 33.1418L9.92834 37.8372ZM47.4274 27.7875C47.4274 31.2357 44.6285 34.0345 41.1786 34.0345H24.2139V38.4998C24.2139 40.962 26.2123 42.9629 28.6728 42.9629H42.9635C43.1466 42.9629 43.3255 43.0194 43.4755 43.1244L50.999 48.3906V43.8557C50.999 43.3625 51.3987 42.9628 51.8918 42.9628H53.6757C56.1425 42.9628 58.1417 40.9613 58.1417 38.4906V25.1142C58.1417 22.6435 56.1416 20.642 53.6744 20.642H47.4277L47.4274 27.7875ZM18.8567 16.1779C16.8844 16.1779 15.2853 14.5789 15.2853 12.6066C15.2853 10.6343 16.8844 9.03527 18.8567 9.03527C20.829 9.03527 22.428 10.6343 22.428 12.6066C22.428 14.5789 20.829 16.1779 18.8567 16.1779ZM18.8567 14.3923C19.843 14.3923 20.6424 13.5929 20.6424 12.6066C20.6424 11.6203 19.843 10.8209 18.8567 10.8209C17.8704 10.8209 17.071 11.6203 17.071 12.6066C17.071 13.5929 17.8704 14.3923 18.8567 14.3923ZM16.5758 22.2778C16.1656 22.0044 16.0547 21.4498 16.3281 21.0397C16.6016 20.6296 17.1561 20.5186 17.5662 20.7921C17.6241 20.8308 17.7605 20.9121 17.9722 21.0223C18.3394 21.2137 18.7744 21.4073 19.2734 21.5886C20.7138 22.1125 22.369 22.4278 24.2136 22.4278C26.0582 22.4278 27.7135 22.1125 29.1539 21.5886C29.653 21.4073 30.0879 21.2137 30.4551 21.0223C30.6668 20.912 30.8032 20.8308 30.8611 20.7921C31.2712 20.5186 31.8258 20.6295 32.0991 21.0397C32.3725 21.4498 32.2617 22.0044 31.8515 22.2778C31.4602 22.5387 30.7558 22.9063 29.7642 23.2669C28.1355 23.8591 26.2752 24.2134 24.2136 24.2134C22.152 24.2134 20.2917 23.8591 18.663 23.2669C17.6715 22.9062 16.9671 22.5387 16.5758 22.2778ZM29.571 16.1779C27.5987 16.1779 25.9996 14.5789 25.9996 12.6066C25.9996 10.6343 27.5987 9.03527 29.571 9.03527C31.5432 9.03527 33.1423 10.6343 33.1423 12.6066C33.1423 14.5789 31.5432 16.1779 29.571 16.1779ZM29.571 14.3923C30.5573 14.3923 31.3566 13.5929 31.3566 12.6066C31.3566 11.6203 30.5573 10.8209 29.571 10.8209C28.5847 10.8209 27.7853 11.6203 27.7853 12.6066C27.7853 13.5929 28.5847 14.3923 29.571 14.3923Z" fill="url(#paint0_linear_1617_66)"/>
<path fill-rule="evenodd" clip-rule="evenodd" d="M47.4274 18.8564H53.6741C57.1279 18.8564 59.9271 21.6577 59.9271 25.1143V38.4908C59.9271 41.947 57.1289 44.7486 53.6754 44.7486H52.7843V50.1056C52.7843 50.8279 51.9714 51.2513 51.3796 50.837L42.6817 44.7487H28.6723C25.2248 44.7487 22.4277 41.9478 22.4277 38.4999V34.0347H19.9905L9.48545 40.1628C8.89011 40.5102 8.14272 40.0808 8.14272 39.3917V34.0347H7.25162C3.7985 34.0347 1 31.2383 1 27.7876V7.24707C1 3.7985 3.80198 1 7.25537 1H41.1724C44.6272 1 47.4277 3.79636 47.4277 7.24707L47.4274 18.8564ZM9.92834 37.8372L19.2995 32.3706C19.4362 32.2908 19.5914 32.2489 19.7494 32.2489H41.1783C43.6424 32.2489 45.6414 30.2494 45.6414 27.7875V7.24698C45.6414 4.78294 43.641 2.78558 41.1717 2.78558H7.25476C4.78688 2.78558 2.78505 4.78535 2.78505 7.24698V27.7875C2.78505 30.2516 4.78384 32.2489 7.25101 32.2489H9.03489C9.52804 32.2489 9.92773 32.6486 9.92773 33.1418L9.92834 37.8372ZM47.4274 27.7875C47.4274 31.2357 44.6285 34.0345 41.1786 34.0345H24.2139V38.4998C24.2139 40.962 26.2123 42.9629 28.6728 42.9629H42.9635C43.1466 42.9629 43.3255 43.0194 43.4755 43.1244L50.999 48.3906V43.8557C50.999 43.3625 51.3987 42.9628 51.8918 42.9628H53.6757C56.1425 42.9628 58.1417 40.9613 58.1417 38.4906V25.1142C58.1417 22.6435 56.1416 20.642 53.6744 20.642H47.4277L47.4274 27.7875ZM18.8567 16.1779C16.8844 16.1779 15.2853 14.5789 15.2853 12.6066C15.2853 10.6343 16.8844 9.03527 18.8567 9.03527C20.829 9.03527 22.428 10.6343 22.428 12.6066C22.428 14.5789 20.829 16.1779 18.8567 16.1779ZM18.8567 14.3923C19.843 14.3923 20.6424 13.5929 20.6424 12.6066C20.6424 11.6203 19.843 10.8209 18.8567 10.8209C17.8704 10.8209 17.071 11.6203 17.071 12.6066C17.071 13.5929 17.8704 14.3923 18.8567 14.3923ZM16.5758 22.2778C16.1656 22.0044 16.0547 21.4498 16.3281 21.0397C16.6016 20.6296 17.1561 20.5186 17.5662 20.7921C17.6241 20.8308 17.7605 20.9121 17.9722 21.0223C18.3394 21.2137 18.7744 21.4073 19.2734 21.5886C20.7138 22.1125 22.369 22.4278 24.2136 22.4278C26.0582 22.4278 27.7135 22.1125 29.1539 21.5886C29.653 21.4073 30.0879 21.2137 30.4551 21.0223C30.6668 20.912 30.8032 20.8308 30.8611 20.7921C31.2712 20.5186 31.8258 20.6295 32.0991 21.0397C32.3725 21.4498 32.2617 22.0044 31.8515 22.2778C31.4602 22.5387 30.7558 22.9063 29.7642 23.2669C28.1355 23.8591 26.2752 24.2134 24.2136 24.2134C22.152 24.2134 20.2917 23.8591 18.663 23.2669C17.6715 22.9062 16.9671 22.5387 16.5758 22.2778ZM29.571 16.1779C27.5987 16.1779 25.9996 14.5789 25.9996 12.6066C25.9996 10.6343 27.5987 9.03527 29.571 9.03527C31.5432 9.03527 33.1423 10.6343 33.1423 12.6066C33.1423 14.5789 31.5432 16.1779 29.571 16.1779ZM29.571 14.3923C30.5573 14.3923 31.3566 13.5929 31.3566 12.6066C31.3566 11.6203 30.5573 10.8209 29.571 10.8209C28.5847 10.8209 27.7853 11.6203 27.7853 12.6066C27.7853 13.5929 28.5847 14.3923 29.571 14.3923Z" fill="url(#paint1_linear_1617_66)" fill-opacity="0.7"/>
<path fill-rule="evenodd" clip-rule="evenodd" d="M47.4274 18.8564H53.6741C57.1279 18.8564 59.9271 21.6577 59.9271 25.1143V38.4908C59.9271 41.947 57.1289 44.7486 53.6754 44.7486H52.7843V50.1056C52.7843 50.8279 51.9714 51.2513 51.3796 50.837L42.6817 44.7487H28.6723C25.2248 44.7487 22.4277 41.9478 22.4277 38.4999V34.0347H19.9905L9.48545 40.1628C8.89011 40.5102 8.14272 40.0808 8.14272 39.3917V34.0347H7.25162C3.7985 34.0347 1 31.2383 1 27.7876V7.24707C1 3.7985 3.80198 1 7.25537 1H41.1724C44.6272 1 47.4277 3.79636 47.4277 7.24707L47.4274 18.8564ZM9.92834 37.8372L19.2995 32.3706C19.4362 32.2908 19.5914 32.2489 19.7494 32.2489H41.1783C43.6424 32.2489 45.6414 30.2494 45.6414 27.7875V7.24698C45.6414 4.78294 43.641 2.78558 41.1717 2.78558H7.25476C4.78688 2.78558 2.78505 4.78535 2.78505 7.24698V27.7875C2.78505 30.2516 4.78384 32.2489 7.25101 32.2489H9.03489C9.52804 32.2489 9.92773 32.6486 9.92773 33.1418L9.92834 37.8372ZM47.4274 27.7875C47.4274 31.2357 44.6285 34.0345 41.1786 34.0345H24.2139V38.4998C24.2139 40.962 26.2123 42.9629 28.6728 42.9629H42.9635C43.1466 42.9629 43.3255 43.0194 43.4755 43.1244L50.999 48.3906V43.8557C50.999 43.3625 51.3987 42.9628 51.8918 42.9628H53.6757C56.1425 42.9628 58.1417 40.9613 58.1417 38.4906V25.1142C58.1417 22.6435 56.1416 20.642 53.6744 20.642H47.4277L47.4274 27.7875ZM18.8567 16.1779C16.8844 16.1779 15.2853 14.5789 15.2853 12.6066C15.2853 10.6343 16.8844 9.03527 18.8567 9.03527C20.829 9.03527 22.428 10.6343 22.428 12.6066C22.428 14.5789 20.829 16.1779 18.8567 16.1779ZM18.8567 14.3923C19.843 14.3923 20.6424 13.5929 20.6424 12.6066C20.6424 11.6203 19.843 10.8209 18.8567 10.8209C17.8704 10.8209 17.071 11.6203 17.071 12.6066C17.071 13.5929 17.8704 14.3923 18.8567 14.3923ZM16.5758 22.2778C16.1656 22.0044 16.0547 21.4498 16.3281 21.0397C16.6016 20.6296 17.1561 20.5186 17.5662 20.7921C17.6241 20.8308 17.7605 20.9121 17.9722 21.0223C18.3394 21.2137 18.7744 21.4073 19.2734 21.5886C20.7138 22.1125 22.369 22.4278 24.2136 22.4278C26.0582 22.4278 27.7135 22.1125 29.1539 21.5886C29.653 21.4073 30.0879 21.2137 30.4551 21.0223C30.6668 20.912 30.8032 20.8308 30.8611 20.7921C31.2712 20.5186 31.8258 20.6295 32.0991 21.0397C32.3725 21.4498 32.2617 22.0044 31.8515 22.2778C31.4602 22.5387 30.7558 22.9063 29.7642 23.2669C28.1355 23.8591 26.2752 24.2134 24.2136 24.2134C22.152 24.2134 20.2917 23.8591 18.663 23.2669C17.6715 22.9062 16.9671 22.5387 16.5758 22.2778ZM29.571 16.1779C27.5987 16.1779 25.9996 14.5789 25.9996 12.6066C25.9996 10.6343 27.5987 9.03527 29.571 9.03527C31.5432 9.03527 33.1423 10.6343 33.1423 12.6066C33.1423 14.5789 31.5432 16.1779 29.571 16.1779ZM29.571 14.3923C30.5573 14.3923 31.3566 13.5929 31.3566 12.6066C31.3566 11.6203 30.5573 10.8209 29.571 10.8209C28.5847 10.8209 27.7853 11.6203 27.7853 12.6066C27.7853 13.5929 28.5847 14.3923 29.571 14.3923Z" stroke="url(#paint2_linear_1617_66)" stroke-width="1.1"/>
<path fill-rule="evenodd" clip-rule="evenodd" d="M47.4274 18.8564H53.6741C57.1279 18.8564 59.9271 21.6577 59.9271 25.1143V38.4908C59.9271 41.947 57.1289 44.7486 53.6754 44.7486H52.7843V50.1056C52.7843 50.8279 51.9714 51.2513 51.3796 50.837L42.6817 44.7487H28.6723C25.2248 44.7487 22.4277 41.9478 22.4277 38.4999V34.0347H19.9905L9.48545 40.1628C8.89011 40.5102 8.14272 40.0808 8.14272 39.3917V34.0347H7.25162C3.7985 34.0347 1 31.2383 1 27.7876V7.24707C1 3.7985 3.80198 1 7.25537 1H41.1724C44.6272 1 47.4277 3.79636 47.4277 7.24707L47.4274 18.8564ZM9.92834 37.8372L19.2995 32.3706C19.4362 32.2908 19.5914 32.2489 19.7494 32.2489H41.1783C43.6424 32.2489 45.6414 30.2494 45.6414 27.7875V7.24698C45.6414 4.78294 43.641 2.78558 41.1717 2.78558H7.25476C4.78688 2.78558 2.78505 4.78535 2.78505 7.24698V27.7875C2.78505 30.2516 4.78384 32.2489 7.25101 32.2489H9.03489C9.52804 32.2489 9.92773 32.6486 9.92773 33.1418L9.92834 37.8372ZM47.4274 27.7875C47.4274 31.2357 44.6285 34.0345 41.1786 34.0345H24.2139V38.4998C24.2139 40.962 26.2123 42.9629 28.6728 42.9629H42.9635C43.1466 42.9629 43.3255 43.0194 43.4755 43.1244L50.999 48.3906V43.8557C50.999 43.3625 51.3987 42.9628 51.8918 42.9628H53.6757C56.1425 42.9628 58.1417 40.9613 58.1417 38.4906V25.1142C58.1417 22.6435 56.1416 20.642 53.6744 20.642H47.4277L47.4274 27.7875ZM18.8567 16.1779C16.8844 16.1779 15.2853 14.5789 15.2853 12.6066C15.2853 10.6343 16.8844 9.03527 18.8567 9.03527C20.829 9.03527 22.428 10.6343 22.428 12.6066C22.428 14.5789 20.829 16.1779 18.8567 16.1779ZM18.8567 14.3923C19.843 14.3923 20.6424 13.5929 20.6424 12.6066C20.6424 11.6203 19.843 10.8209 18.8567 10.8209C17.8704 10.8209 17.071 11.6203 17.071 12.6066C17.071 13.5929 17.8704 14.3923 18.8567 14.3923ZM16.5758 22.2778C16.1656 22.0044 16.0547 21.4498 16.3281 21.0397C16.6016 20.6296 17.1561 20.5186 17.5662 20.7921C17.6241 20.8308 17.7605 20.9121 17.9722 21.0223C18.3394 21.2137 18.7744 21.4073 19.2734 21.5886C20.7138 22.1125 22.369 22.4278 24.2136 22.4278C26.0582 22.4278 27.7135 22.1125 29.1539 21.5886C29.653 21.4073 30.0879 21.2137 30.4551 21.0223C30.6668 20.912 30.8032 20.8308 30.8611 20.7921C31.2712 20.5186 31.8258 20.6295 32.0991 21.0397C32.3725 21.4498 32.2617 22.0044 31.8515 22.2778C31.4602 22.5387 30.7558 22.9063 29.7642 23.2669C28.1355 23.8591 26.2752 24.2134 24.2136 24.2134C22.152 24.2134 20.2917 23.8591 18.663 23.2669C17.6715 22.9062 16.9671 22.5387 16.5758 22.2778ZM29.571 16.1779C27.5987 16.1779 25.9996 14.5789 25.9996 12.6066C25.9996 10.6343 27.5987 9.03527 29.571 9.03527C31.5432 9.03527 33.1423 10.6343 33.1423 12.6066C33.1423 14.5789 31.5432 16.1779 29.571 16.1779ZM29.571 14.3923C30.5573 14.3923 31.3566 13.5929 31.3566 12.6066C31.3566 11.6203 30.5573 10.8209 29.571 10.8209C28.5847 10.8209 27.7853 11.6203 27.7853 12.6066C27.7853 13.5929 28.5847 14.3923 29.571 14.3923Z" stroke="url(#paint3_linear_1617_66)" stroke-opacity="0.7" stroke-width="1.1"/>
<defs>
<linearGradient id="paint0_linear_1617_66" x1="-9.33422" y1="-7.92855" x2="74.0571" y2="-1.08797" gradientUnits="userSpaceOnUse">
<stop stop-color="#FCF1B5"/>
<stop offset="0.9375" stop-color="#FFBF31"/>
</linearGradient>
<linearGradient id="paint1_linear_1617_66" x1="20.1293" y1="-69.7143" x2="120.825" y2="-19.1092" gradientUnits="userSpaceOnUse">
<stop offset="0.0252352" stop-color="white" stop-opacity="0.1"/>
<stop offset="0.448382" stop-color="#C06500" stop-opacity="0.7"/>
<stop offset="0.763925" stop-color="#E47B00" stop-opacity="0.3"/>
<stop offset="1" stop-color="white" stop-opacity="0"/>
</linearGradient>
<linearGradient id="paint2_linear_1617_66" x1="-9.33422" y1="-7.92855" x2="74.0571" y2="-1.08797" gradientUnits="userSpaceOnUse">
<stop stop-color="#FCF1B5"/>
<stop offset="0.9375" stop-color="#FFBF31"/>
</linearGradient>
<linearGradient id="paint3_linear_1617_66" x1="20.1293" y1="-69.7143" x2="120.825" y2="-19.1092" gradientUnits="userSpaceOnUse">
<stop offset="0.0252352" stop-color="white" stop-opacity="0.1"/>
<stop offset="0.448382" stop-color="#C06500" stop-opacity="0.7"/>
<stop offset="0.763925" stop-color="#E47B00" stop-opacity="0.3"/>
<stop offset="1" stop-color="white" stop-opacity="0"/>
</linearGradient>
</defs>
</svg>
