<svg width="72" height="40" viewBox="0 0 72 40" fill="none" xmlns="http://www.w3.org/2000/svg">
<path d="M28.6384 18.7066L29.002 18.5527L28.7074 18.2899C26.5801 16.3921 25.2387 13.6554 25.2387 10.6156C25.2387 4.90051 29.9877 0.25 35.7563 0.25C41.5249 0.25 46.274 4.90048 46.274 10.6154C46.274 13.6544 44.9317 16.3878 42.8053 18.2857L42.5107 18.5486L42.8744 18.7024C45.4879 19.8074 47.7837 21.5024 49.59 23.6175L49.7253 23.7759L49.9055 23.6715C50.2108 23.4946 50.5258 23.329 50.8465 23.1748L51.1545 23.0266L50.92 22.7779C49.5181 21.2917 48.657 19.3035 48.657 17.1237C48.657 12.5327 52.4835 8.79746 57.1065 8.79746C61.7289 8.79746 65.5437 12.5322 65.5437 17.1237C65.5437 19.3088 64.6803 21.2986 63.2767 22.7862L63.0428 23.034L63.3495 23.1827C68.0393 25.4562 71.2791 30.2097 71.2791 35.7111V37.902C71.2771 38.3943 71.0798 38.8652 70.7306 39.2114L70.7303 39.2117C70.3816 39.5583 69.9092 39.7519 69.4169 39.7498H69.4164C68.3962 39.7478 67.5691 38.9222 67.5649 37.902V35.7117C67.5649 30.0136 62.9525 25.467 57.1064 25.467C55.2422 25.467 53.5102 25.9335 52.0081 26.7514L51.7944 26.8677L51.9049 27.0845C53.1227 29.4737 53.81 32.1678 53.81 35.025L53.81 37.902C53.81 37.9023 53.81 37.9026 53.81 37.9029C53.8054 38.9216 52.9811 39.7456 51.9622 39.7498C51.4705 39.7518 50.9975 39.5582 50.6488 39.2116L50.6486 39.2114C50.2995 38.8654 50.1023 38.3948 50.1 37.9028C50.1 37.9025 50.1 37.9022 50.1 37.9019L50.1 35.025C50.1 32.2646 49.3064 29.6967 47.9228 27.5311L47.9081 27.5082L47.8889 27.4889C47.8759 27.476 47.8695 27.4698 47.8632 27.4636C47.7931 27.3729 47.7317 27.2761 47.6793 27.1734L47.6719 27.1588L47.6627 27.1453C45.0999 23.4149 40.7509 20.9767 35.7558 20.9767C30.7826 20.9767 26.4499 23.3929 23.8823 27.0951L23.8717 27.1103L23.8635 27.1269C23.8044 27.2467 23.7325 27.3594 23.6489 27.4631C23.6416 27.4708 23.6369 27.4755 23.6327 27.4796L23.6104 27.5006L23.594 27.5264C22.2092 29.6925 21.4126 32.2622 21.4126 35.0245L21.4126 37.9015C21.4126 37.9017 21.4126 37.9018 21.4126 37.902C21.4082 38.9203 20.5833 39.7451 19.5648 39.7493C19.0726 39.7513 18.6002 39.5578 18.2514 39.2111L18.2512 39.2109C17.9021 38.8648 17.7048 38.3935 17.7026 37.9019C17.7026 37.9017 17.7026 37.9016 17.7026 37.9014L17.7026 35.0245C17.7026 32.1637 18.3911 29.4668 19.6117 27.0758L19.7226 26.8587L19.5083 26.7424C18.0091 25.9286 16.2807 25.4664 14.4226 25.4664C8.57709 25.4664 3.94769 30.0126 3.94769 35.7111V37.902C3.94331 38.9199 3.11895 39.7445 2.10101 39.7492C1.0812 39.747 0.254404 38.9217 0.25 37.9019V35.7111C0.25 30.2128 3.48918 25.4616 8.17556 23.1867L8.48265 23.0377L8.24787 22.7899C6.83789 21.3018 5.96886 19.3101 5.96886 17.1238C5.96886 12.5329 9.79945 8.79749 14.4226 8.79749C19.045 8.79749 22.8598 12.5323 22.8598 17.1238C22.8598 19.3029 21.9981 21.2877 20.6006 22.7742L20.3669 23.0228L20.6744 23.1707C20.9948 23.3249 21.3099 23.4911 21.6157 23.6677L21.7957 23.7716L21.9307 23.6136C23.7352 21.5021 26.0289 19.8109 28.6384 18.7066ZM42.5638 10.6156C42.5638 6.93433 39.5596 3.96002 35.7563 3.96002C31.953 3.96002 28.9487 6.93448 28.9487 10.6156C28.9487 14.2969 31.9532 17.2669 35.7563 17.2669C39.5594 17.2669 42.5638 14.2969 42.5638 10.6156ZM19.1452 17.1238C19.1452 14.563 17.0769 12.5076 14.422 12.5076C11.7686 12.5076 9.6825 14.5618 9.6825 17.1238C9.6825 19.6858 11.7684 21.74 14.422 21.74C17.0769 21.74 19.1452 19.6846 19.1452 17.1238ZM61.8328 17.1238C61.8328 14.5627 59.7601 12.5076 57.1056 12.5076C54.4521 12.5076 52.3661 14.5618 52.3661 17.1238C52.3661 19.6858 54.4521 21.74 57.1056 21.74C59.76 21.74 61.8328 19.6849 61.8328 17.1238Z" fill="url(#paint0_linear_1620_58)"/>
<path d="M28.6384 18.7066L29.002 18.5527L28.7074 18.2899C26.5801 16.3921 25.2387 13.6554 25.2387 10.6156C25.2387 4.90051 29.9877 0.25 35.7563 0.25C41.5249 0.25 46.274 4.90048 46.274 10.6154C46.274 13.6544 44.9317 16.3878 42.8053 18.2857L42.5107 18.5486L42.8744 18.7024C45.4879 19.8074 47.7837 21.5024 49.59 23.6175L49.7253 23.7759L49.9055 23.6715C50.2108 23.4946 50.5258 23.329 50.8465 23.1748L51.1545 23.0266L50.92 22.7779C49.5181 21.2917 48.657 19.3035 48.657 17.1237C48.657 12.5327 52.4835 8.79746 57.1065 8.79746C61.7289 8.79746 65.5437 12.5322 65.5437 17.1237C65.5437 19.3088 64.6803 21.2986 63.2767 22.7862L63.0428 23.034L63.3495 23.1827C68.0393 25.4562 71.2791 30.2097 71.2791 35.7111V37.902C71.2771 38.3943 71.0798 38.8652 70.7306 39.2114L70.7303 39.2117C70.3816 39.5583 69.9092 39.7519 69.4169 39.7498H69.4164C68.3962 39.7478 67.5691 38.9222 67.5649 37.902V35.7117C67.5649 30.0136 62.9525 25.467 57.1064 25.467C55.2422 25.467 53.5102 25.9335 52.0081 26.7514L51.7944 26.8677L51.9049 27.0845C53.1227 29.4737 53.81 32.1678 53.81 35.025L53.81 37.902C53.81 37.9023 53.81 37.9026 53.81 37.9029C53.8054 38.9216 52.9811 39.7456 51.9622 39.7498C51.4705 39.7518 50.9975 39.5582 50.6488 39.2116L50.6486 39.2114C50.2995 38.8654 50.1023 38.3948 50.1 37.9028C50.1 37.9025 50.1 37.9022 50.1 37.9019L50.1 35.025C50.1 32.2646 49.3064 29.6967 47.9228 27.5311L47.9081 27.5082L47.8889 27.4889C47.8759 27.476 47.8695 27.4698 47.8632 27.4636C47.7931 27.3729 47.7317 27.2761 47.6793 27.1734L47.6719 27.1588L47.6627 27.1453C45.0999 23.4149 40.7509 20.9767 35.7558 20.9767C30.7826 20.9767 26.4499 23.3929 23.8823 27.0951L23.8717 27.1103L23.8635 27.1269C23.8044 27.2467 23.7325 27.3594 23.6489 27.4631C23.6416 27.4708 23.6369 27.4755 23.6327 27.4796L23.6104 27.5006L23.594 27.5264C22.2092 29.6925 21.4126 32.2622 21.4126 35.0245L21.4126 37.9015C21.4126 37.9017 21.4126 37.9018 21.4126 37.902C21.4082 38.9203 20.5833 39.7451 19.5648 39.7493C19.0726 39.7513 18.6002 39.5578 18.2514 39.2111L18.2512 39.2109C17.9021 38.8648 17.7048 38.3935 17.7026 37.9019C17.7026 37.9017 17.7026 37.9016 17.7026 37.9014L17.7026 35.0245C17.7026 32.1637 18.3911 29.4668 19.6117 27.0758L19.7226 26.8587L19.5083 26.7424C18.0091 25.9286 16.2807 25.4664 14.4226 25.4664C8.57709 25.4664 3.94769 30.0126 3.94769 35.7111V37.902C3.94331 38.9199 3.11895 39.7445 2.10101 39.7492C1.0812 39.747 0.254404 38.9217 0.25 37.9019V35.7111C0.25 30.2128 3.48918 25.4616 8.17556 23.1867L8.48265 23.0377L8.24787 22.7899C6.83789 21.3018 5.96886 19.3101 5.96886 17.1238C5.96886 12.5329 9.79945 8.79749 14.4226 8.79749C19.045 8.79749 22.8598 12.5323 22.8598 17.1238C22.8598 19.3029 21.9981 21.2877 20.6006 22.7742L20.3669 23.0228L20.6744 23.1707C20.9948 23.3249 21.3099 23.4911 21.6157 23.6677L21.7957 23.7716L21.9307 23.6136C23.7352 21.5021 26.0289 19.8109 28.6384 18.7066ZM42.5638 10.6156C42.5638 6.93433 39.5596 3.96002 35.7563 3.96002C31.953 3.96002 28.9487 6.93448 28.9487 10.6156C28.9487 14.2969 31.9532 17.2669 35.7563 17.2669C39.5594 17.2669 42.5638 14.2969 42.5638 10.6156ZM19.1452 17.1238C19.1452 14.563 17.0769 12.5076 14.422 12.5076C11.7686 12.5076 9.6825 14.5618 9.6825 17.1238C9.6825 19.6858 11.7684 21.74 14.422 21.74C17.0769 21.74 19.1452 19.6846 19.1452 17.1238ZM61.8328 17.1238C61.8328 14.5627 59.7601 12.5076 57.1056 12.5076C54.4521 12.5076 52.3661 14.5618 52.3661 17.1238C52.3661 19.6858 54.4521 21.74 57.1056 21.74C59.76 21.74 61.8328 19.6849 61.8328 17.1238Z" fill="url(#paint1_linear_1620_58)" fill-opacity="0.7"/>
<path d="M28.6384 18.7066L29.002 18.5527L28.7074 18.2899C26.5801 16.3921 25.2387 13.6554 25.2387 10.6156C25.2387 4.90051 29.9877 0.25 35.7563 0.25C41.5249 0.25 46.274 4.90048 46.274 10.6154C46.274 13.6544 44.9317 16.3878 42.8053 18.2857L42.5107 18.5486L42.8744 18.7024C45.4879 19.8074 47.7837 21.5024 49.59 23.6175L49.7253 23.7759L49.9055 23.6715C50.2108 23.4946 50.5258 23.329 50.8465 23.1748L51.1545 23.0266L50.92 22.7779C49.5181 21.2917 48.657 19.3035 48.657 17.1237C48.657 12.5327 52.4835 8.79746 57.1065 8.79746C61.7289 8.79746 65.5437 12.5322 65.5437 17.1237C65.5437 19.3088 64.6803 21.2986 63.2767 22.7862L63.0428 23.034L63.3495 23.1827C68.0393 25.4562 71.2791 30.2097 71.2791 35.7111V37.902C71.2771 38.3943 71.0798 38.8652 70.7306 39.2114L70.7303 39.2117C70.3816 39.5583 69.9092 39.7519 69.4169 39.7498H69.4164C68.3962 39.7478 67.5691 38.9222 67.5649 37.902V35.7117C67.5649 30.0136 62.9525 25.467 57.1064 25.467C55.2422 25.467 53.5102 25.9335 52.0081 26.7514L51.7944 26.8677L51.9049 27.0845C53.1227 29.4737 53.81 32.1678 53.81 35.025L53.81 37.902C53.81 37.9023 53.81 37.9026 53.81 37.9029C53.8054 38.9216 52.9811 39.7456 51.9622 39.7498C51.4705 39.7518 50.9975 39.5582 50.6488 39.2116L50.6486 39.2114C50.2995 38.8654 50.1023 38.3948 50.1 37.9028C50.1 37.9025 50.1 37.9022 50.1 37.9019L50.1 35.025C50.1 32.2646 49.3064 29.6967 47.9228 27.5311L47.9081 27.5082L47.8889 27.4889C47.8759 27.476 47.8695 27.4698 47.8632 27.4636C47.7931 27.3729 47.7317 27.2761 47.6793 27.1734L47.6719 27.1588L47.6627 27.1453C45.0999 23.4149 40.7509 20.9767 35.7558 20.9767C30.7826 20.9767 26.4499 23.3929 23.8823 27.0951L23.8717 27.1103L23.8635 27.1269C23.8044 27.2467 23.7325 27.3594 23.6489 27.4631C23.6416 27.4708 23.6369 27.4755 23.6327 27.4796L23.6104 27.5006L23.594 27.5264C22.2092 29.6925 21.4126 32.2622 21.4126 35.0245L21.4126 37.9015C21.4126 37.9017 21.4126 37.9018 21.4126 37.902C21.4082 38.9203 20.5833 39.7451 19.5648 39.7493C19.0726 39.7513 18.6002 39.5578 18.2514 39.2111L18.2512 39.2109C17.9021 38.8648 17.7048 38.3935 17.7026 37.9019C17.7026 37.9017 17.7026 37.9016 17.7026 37.9014L17.7026 35.0245C17.7026 32.1637 18.3911 29.4668 19.6117 27.0758L19.7226 26.8587L19.5083 26.7424C18.0091 25.9286 16.2807 25.4664 14.4226 25.4664C8.57709 25.4664 3.94769 30.0126 3.94769 35.7111V37.902C3.94331 38.9199 3.11895 39.7445 2.10101 39.7492C1.0812 39.747 0.254404 38.9217 0.25 37.9019V35.7111C0.25 30.2128 3.48918 25.4616 8.17556 23.1867L8.48265 23.0377L8.24787 22.7899C6.83789 21.3018 5.96886 19.3101 5.96886 17.1238C5.96886 12.5329 9.79945 8.79749 14.4226 8.79749C19.045 8.79749 22.8598 12.5323 22.8598 17.1238C22.8598 19.3029 21.9981 21.2877 20.6006 22.7742L20.3669 23.0228L20.6744 23.1707C20.9948 23.3249 21.3099 23.4911 21.6157 23.6677L21.7957 23.7716L21.9307 23.6136C23.7352 21.5021 26.0289 19.8109 28.6384 18.7066ZM42.5638 10.6156C42.5638 6.93433 39.5596 3.96002 35.7563 3.96002C31.953 3.96002 28.9487 6.93448 28.9487 10.6156C28.9487 14.2969 31.9532 17.2669 35.7563 17.2669C39.5594 17.2669 42.5638 14.2969 42.5638 10.6156ZM19.1452 17.1238C19.1452 14.563 17.0769 12.5076 14.422 12.5076C11.7686 12.5076 9.6825 14.5618 9.6825 17.1238C9.6825 19.6858 11.7684 21.74 14.422 21.74C17.0769 21.74 19.1452 19.6846 19.1452 17.1238ZM61.8328 17.1238C61.8328 14.5627 59.7601 12.5076 57.1056 12.5076C54.4521 12.5076 52.3661 14.5618 52.3661 17.1238C52.3661 19.6858 54.4521 21.74 57.1056 21.74C59.76 21.74 61.8328 19.6849 61.8328 17.1238Z" stroke="white" stroke-width="0.5"/>
<defs>
<linearGradient id="paint0_linear_1620_58" x1="-12.5443" y1="-7.14281" x2="87.8075" y2="5.34763" gradientUnits="userSpaceOnUse">
<stop stop-color="#FCF1B5"/>
<stop offset="0.9375" stop-color="#FFBF31"/>
</linearGradient>
<linearGradient id="paint1_linear_1620_58" x1="23.2203" y1="-56.5712" x2="120.029" y2="17.2499" gradientUnits="userSpaceOnUse">
<stop offset="0.0252352" stop-color="white" stop-opacity="0.1"/>
<stop offset="0.448382" stop-color="#C06500" stop-opacity="0.7"/>
<stop offset="0.763925" stop-color="#E47B00" stop-opacity="0.3"/>
<stop offset="1" stop-color="white" stop-opacity="0"/>
</linearGradient>
</defs>
</svg>
