<svg width="54" height="52" viewBox="0 0 54 52" fill="none" xmlns="http://www.w3.org/2000/svg">
<path d="M29.9062 6.46875C29.9062 3.44911 32.3543 1 35.3726 1H43.19C46.2072 1 48.6563 3.45223 48.6563 6.46875C48.6563 9.48839 46.2083 11.9375 43.19 11.9375H35.3726C32.3554 11.9375 29.9062 9.48527 29.9062 6.46875ZM31.4688 6.46875C31.4688 8.62277 33.2186 10.375 35.3726 10.375H43.19C45.3451 10.375 47.0938 8.62554 47.0938 6.46875C47.0938 4.31473 45.344 2.5625 43.19 2.5625H35.3726C33.2175 2.5625 31.4688 4.31196 31.4688 6.46875ZM46.3125 49.4375H51.7812C52.2127 49.4375 52.5625 49.7873 52.5625 50.2188C52.5625 50.6502 52.2127 51 51.7812 51H1.78125C1.34982 51 1 50.6502 1 50.2188C1 49.7873 1.34982 49.4375 1.78125 49.4375H7.25V37.7188C7.25 37.2873 7.59982 36.9375 8.03125 36.9375H19.75V31.4688C19.75 31.0373 20.0998 30.6875 20.5312 30.6875H32.25V20.5312C32.25 20.0998 32.5998 19.75 33.0312 19.75H45.5312C45.9627 19.75 46.3125 20.0998 46.3125 20.5312V49.4375ZM21.3125 32.25V49.4375H32.25V32.25H21.3125ZM33.8125 21.3125V49.4375H44.75V21.3125H33.8125ZM8.8125 38.5V49.4375H19.75V38.5H8.8125ZM35.375 7.25C34.9436 7.25 34.5938 6.90018 34.5938 6.46875C34.5938 6.03732 34.9436 5.6875 35.375 5.6875H39.2812C39.7127 5.6875 40.0625 6.03732 40.0625 6.46875C40.0625 6.90018 39.7127 7.25 39.2812 7.25H35.375Z" fill="url(#paint0_linear_1617_65)"/>
<path d="M29.9062 6.46875C29.9062 3.44911 32.3543 1 35.3726 1H43.19C46.2072 1 48.6563 3.45223 48.6563 6.46875C48.6563 9.48839 46.2083 11.9375 43.19 11.9375H35.3726C32.3554 11.9375 29.9062 9.48527 29.9062 6.46875ZM31.4688 6.46875C31.4688 8.62277 33.2186 10.375 35.3726 10.375H43.19C45.3451 10.375 47.0938 8.62554 47.0938 6.46875C47.0938 4.31473 45.344 2.5625 43.19 2.5625H35.3726C33.2175 2.5625 31.4688 4.31196 31.4688 6.46875ZM46.3125 49.4375H51.7812C52.2127 49.4375 52.5625 49.7873 52.5625 50.2188C52.5625 50.6502 52.2127 51 51.7812 51H1.78125C1.34982 51 1 50.6502 1 50.2188C1 49.7873 1.34982 49.4375 1.78125 49.4375H7.25V37.7188C7.25 37.2873 7.59982 36.9375 8.03125 36.9375H19.75V31.4688C19.75 31.0373 20.0998 30.6875 20.5312 30.6875H32.25V20.5312C32.25 20.0998 32.5998 19.75 33.0312 19.75H45.5312C45.9627 19.75 46.3125 20.0998 46.3125 20.5312V49.4375ZM21.3125 32.25V49.4375H32.25V32.25H21.3125ZM33.8125 21.3125V49.4375H44.75V21.3125H33.8125ZM8.8125 38.5V49.4375H19.75V38.5H8.8125ZM35.375 7.25C34.9436 7.25 34.5938 6.90018 34.5938 6.46875C34.5938 6.03732 34.9436 5.6875 35.375 5.6875H39.2812C39.7127 5.6875 40.0625 6.03732 40.0625 6.46875C40.0625 6.90018 39.7127 7.25 39.2812 7.25H35.375Z" fill="url(#paint1_linear_1617_65)" fill-opacity="0.7"/>
<path d="M29.9062 6.46875C29.9062 3.44911 32.3543 1 35.3726 1H43.19C46.2072 1 48.6563 3.45223 48.6563 6.46875C48.6563 9.48839 46.2083 11.9375 43.19 11.9375H35.3726C32.3554 11.9375 29.9062 9.48527 29.9062 6.46875ZM31.4688 6.46875C31.4688 8.62277 33.2186 10.375 35.3726 10.375H43.19C45.3451 10.375 47.0938 8.62554 47.0938 6.46875C47.0938 4.31473 45.344 2.5625 43.19 2.5625H35.3726C33.2175 2.5625 31.4688 4.31196 31.4688 6.46875ZM46.3125 49.4375H51.7812C52.2127 49.4375 52.5625 49.7873 52.5625 50.2188C52.5625 50.6502 52.2127 51 51.7812 51H1.78125C1.34982 51 1 50.6502 1 50.2188C1 49.7873 1.34982 49.4375 1.78125 49.4375H7.25V37.7188C7.25 37.2873 7.59982 36.9375 8.03125 36.9375H19.75V31.4688C19.75 31.0373 20.0998 30.6875 20.5312 30.6875H32.25V20.5312C32.25 20.0998 32.5998 19.75 33.0312 19.75H45.5312C45.9627 19.75 46.3125 20.0998 46.3125 20.5312V49.4375ZM21.3125 32.25V49.4375H32.25V32.25H21.3125ZM33.8125 21.3125V49.4375H44.75V21.3125H33.8125ZM8.8125 38.5V49.4375H19.75V38.5H8.8125ZM35.375 7.25C34.9436 7.25 34.5938 6.90018 34.5938 6.46875C34.5938 6.03732 34.9436 5.6875 35.375 5.6875H39.2812C39.7127 5.6875 40.0625 6.03732 40.0625 6.46875C40.0625 6.90018 39.7127 7.25 39.2812 7.25H35.375Z" stroke="url(#paint2_linear_1617_65)" stroke-width="1.1"/>
<path d="M29.9062 6.46875C29.9062 3.44911 32.3543 1 35.3726 1H43.19C46.2072 1 48.6563 3.45223 48.6563 6.46875C48.6563 9.48839 46.2083 11.9375 43.19 11.9375H35.3726C32.3554 11.9375 29.9062 9.48527 29.9062 6.46875ZM31.4688 6.46875C31.4688 8.62277 33.2186 10.375 35.3726 10.375H43.19C45.3451 10.375 47.0938 8.62554 47.0938 6.46875C47.0938 4.31473 45.344 2.5625 43.19 2.5625H35.3726C33.2175 2.5625 31.4688 4.31196 31.4688 6.46875ZM46.3125 49.4375H51.7812C52.2127 49.4375 52.5625 49.7873 52.5625 50.2188C52.5625 50.6502 52.2127 51 51.7812 51H1.78125C1.34982 51 1 50.6502 1 50.2188C1 49.7873 1.34982 49.4375 1.78125 49.4375H7.25V37.7188C7.25 37.2873 7.59982 36.9375 8.03125 36.9375H19.75V31.4688C19.75 31.0373 20.0998 30.6875 20.5312 30.6875H32.25V20.5312C32.25 20.0998 32.5998 19.75 33.0312 19.75H45.5312C45.9627 19.75 46.3125 20.0998 46.3125 20.5312V49.4375ZM21.3125 32.25V49.4375H32.25V32.25H21.3125ZM33.8125 21.3125V49.4375H44.75V21.3125H33.8125ZM8.8125 38.5V49.4375H19.75V38.5H8.8125ZM35.375 7.25C34.9436 7.25 34.5938 6.90018 34.5938 6.46875C34.5938 6.03732 34.9436 5.6875 35.375 5.6875H39.2812C39.7127 5.6875 40.0625 6.03732 40.0625 6.46875C40.0625 6.90018 39.7127 7.25 39.2812 7.25H35.375Z" stroke="url(#paint3_linear_1617_65)" stroke-opacity="0.7" stroke-width="1.1"/>
<defs>
<linearGradient id="paint0_linear_1617_65" x1="-8.04268" y1="-7.92855" x2="65.0411" y2="-2.68275" gradientUnits="userSpaceOnUse">
<stop stop-color="#FCF1B5"/>
<stop offset="0.9375" stop-color="#FFBF31"/>
</linearGradient>
<linearGradient id="paint1_linear_1617_65" x1="17.7386" y1="-69.7143" x2="110.219" y2="-29.0462" gradientUnits="userSpaceOnUse">
<stop offset="0.0252352" stop-color="white" stop-opacity="0.1"/>
<stop offset="0.448382" stop-color="#C06500" stop-opacity="0.7"/>
<stop offset="0.763925" stop-color="#E47B00" stop-opacity="0.3"/>
<stop offset="1" stop-color="white" stop-opacity="0"/>
</linearGradient>
<linearGradient id="paint2_linear_1617_65" x1="-8.04268" y1="-7.92855" x2="65.0411" y2="-2.68275" gradientUnits="userSpaceOnUse">
<stop stop-color="#FCF1B5"/>
<stop offset="0.9375" stop-color="#FFBF31"/>
</linearGradient>
<linearGradient id="paint3_linear_1617_65" x1="17.7386" y1="-69.7143" x2="110.219" y2="-29.0462" gradientUnits="userSpaceOnUse">
<stop offset="0.0252352" stop-color="white" stop-opacity="0.1"/>
<stop offset="0.448382" stop-color="#C06500" stop-opacity="0.7"/>
<stop offset="0.763925" stop-color="#E47B00" stop-opacity="0.3"/>
<stop offset="1" stop-color="white" stop-opacity="0"/>
</linearGradient>
</defs>
</svg>
