<svg width="113" height="60" viewBox="0 0 113 60" fill="none" xmlns="http://www.w3.org/2000/svg">
<path d="M26.0156 59.9855C26.0163 59.9857 26.017 59.9851 26.0169 59.9844C25.7106 56.585 25.8772 53.2878 26.8929 50.1088C27.5192 48.1272 29.1199 46.8439 31.0795 46.2356C33.8687 45.3598 36.7304 44.7311 39.5306 43.9016C39.5308 43.9015 39.5309 43.9017 39.5308 43.9018C39.5307 43.9019 39.5308 43.9021 39.5309 43.902C41.212 43.4415 42.8508 42.841 44.4309 42.1068C47.9536 40.3748 48.5363 37.8703 46.8967 34.293C46.8965 34.2927 46.8963 34.2924 46.896 34.2921C46.8958 34.2919 46.8956 34.2916 46.8954 34.2912C45.054 30.3323 43.4284 26.2755 42.0263 22.1399C40.7697 18.3606 40.7126 14.4171 41.755 10.5001C43.2485 4.83161 47.4869 1.02408 53.3595 0.226543C57.6135 -0.351333 61.6797 0.0779684 65.2862 2.66781C70.6702 6.52999 71.6797 12.0827 71.0509 18.1087C70.4684 23.6983 68.4235 28.8835 65.7961 33.8319C63.5432 38.064 64.3901 40.7555 68.8613 42.4977C71.782 43.6339 74.8825 44.3088 77.9017 45.1956C79.1411 45.5616 80.4258 45.8283 81.6019 46.3405C83.8852 47.3367 85.5696 48.9241 85.8519 51.5625C86.0338 53.2635 86.1932 54.9659 86.3533 56.6975C86.5162 58.4595 85.129 59.9835 83.3594 59.9835H26.0159C26.0148 59.9835 26.0145 59.9851 26.0156 59.9855Z" fill="#7E6745"/>
<path d="M21.8423 60.0002C21.8423 60.0002 21.8422 60.0002 21.8422 60.0002H3.41563C1.60508 60.0002 0.157575 58.403 0.338824 56.6016C0.475804 55.2401 0.663821 53.9188 1.09478 52.6811C1.53268 51.4393 3.15529 50.3249 4.50193 49.7517C6.54671 48.876 8.82128 48.5499 10.9826 47.9345C10.9828 47.9345 10.9829 47.9343 10.9829 47.934C10.9829 47.9338 10.9831 47.9336 10.9833 47.9336C11.9028 47.6747 12.7988 47.3393 13.6628 46.9312C16.5249 45.569 17.1443 43.7236 15.6553 40.9052C13.5361 36.8983 11.933 32.732 11.5561 28.1778C11.0635 22.3778 13.7613 17.7205 18.7816 16.2535C26.9486 13.8693 33.9088 18.7214 33.7627 27.0722C33.7486 29.0896 33.5961 31.1033 33.3076 33.0995C32.7735 36.5151 31.4379 39.629 28.6393 41.8076C24.2906 45.1928 22.7542 49.8651 22.1865 55.0323C22.0137 56.6343 21.9589 58.2613 21.8433 59.9992C21.8432 59.9997 21.8428 60.0001 21.8423 60.0002Z" fill="#7E6745"/>
<path d="M112.067 60.0002H93.3427C91.8667 60.0002 90.6104 58.9265 90.3876 57.4674C90.0204 55.0632 89.6655 52.6978 89.247 50.3445C88.6645 47.1125 86.9215 44.5008 84.4019 42.4621C80.568 39.3703 79.0424 35.221 78.6716 30.5293C78.3933 26.9884 78.3057 23.4962 80.4498 20.3018C82.8935 16.6608 86.3898 15.4849 90.4952 15.6929C98.4517 16.1042 102.113 22.5439 100.46 30.3627C99.7153 33.8832 98.2531 37.2902 96.7986 40.612C95.3449 43.9339 95.8024 45.7902 99.2181 47.1259C101.216 47.8711 103.265 48.4724 105.349 48.926C110.435 50.113 111.569 51.315 112.051 56.4798C112.156 57.5916 112.068 58.7166 112.068 59.9995C112.068 59.9999 112.068 60.0002 112.067 60.0002Z" fill="#7E6745"/>
</svg>
