<svg width="77" height="90" viewBox="0 0 77 90" fill="none" xmlns="http://www.w3.org/2000/svg">
<path d="M74.9955 22.5203C74.9957 22.5203 74.9958 22.5201 74.9957 22.52L65.8928 13.4179C64.5438 12.1006 62.5983 11.596 60.7787 12.0919C58.96 12.587 57.5389 14.008 57.043 15.8276C56.6563 17.2485 56.8796 18.7467 57.6241 19.9779C58.0292 20.6479 58.6744 21.2555 59.2265 21.8105C59.4222 22.0072 59.6372 22.2231 59.856 22.4425C60.8482 23.4376 60.8504 25.0477 59.8593 26.0438C58.9191 26.9887 57.4153 27.0411 56.3466 26.2445C54.2427 24.6761 51.971 23.3462 49.5729 22.2791C48.4317 21.7714 47.6525 20.6642 47.6525 19.4151V10.8981C47.7412 4.61644 41.4779 -0.138659 35.3033 0.00308759C28.5076 0.00308759 22.8296 4.86525 22.8114 10.8981V19.4419C22.8114 20.6777 22.0312 21.7847 20.9036 22.2904C-13.204 37.5867 -3.55773 89.2849 35.2319 89.9999C65.4651 90.0693 81.3506 54.1564 62.3797 31.922C61.5186 30.9129 61.5181 29.3965 62.4561 28.4585C63.4035 27.5111 64.9395 27.5112 65.8868 28.4587L67.4653 30.0377C67.4693 30.0416 67.4715 30.0469 67.4715 30.0524C67.4715 30.0581 67.4737 30.0635 67.4778 30.0674C68.8297 31.3793 70.775 31.8792 72.5926 31.3817C74.4129 30.8835 75.8331 29.4592 76.3275 27.6381C76.8209 25.8163 76.3141 23.8702 74.9954 22.5205C74.9953 22.5204 74.9954 22.5202 74.9955 22.5203ZM35.2314 75.8035C35.2316 75.8036 35.2315 75.804 35.2312 75.804C29.6097 75.7982 24.2204 73.562 20.2458 69.5874C16.6992 66.0413 14.5374 61.3688 14.1077 56.4106C14.0213 55.4138 14.8401 54.6004 15.8407 54.6004C16.8112 54.6004 17.6013 55.3767 17.7133 56.3407C20.2288 77.9896 51.9354 77.4264 52.886 54.6004C52.8828 49.9189 51.0221 45.4307 47.7117 42.1205C44.8128 39.2216 41.01 37.4337 36.9655 37.0319C36.0105 36.937 35.2309 36.1677 35.2309 35.208C35.2309 34.2199 36.07 33.4255 37.0527 33.5293C63.3237 36.3021 62.7338 74.6581 35.2316 75.8029C35.2314 75.8029 35.2312 75.8033 35.2314 75.8035ZM21.9519 43.8211C21.2607 43.1299 21.2607 42.0093 21.9519 41.3181C22.6425 40.6275 23.762 40.6268 24.4535 41.3167L29.2761 46.1279C30.2607 47.1102 31.7832 47.2253 33.1271 46.8672C34.1938 46.583 35.3158 46.5182 36.4241 46.687C38.3213 46.9753 40.0544 47.9306 41.3116 49.3802C42.5695 50.8306 43.2698 52.6801 43.288 54.5994C42.9505 65.2282 27.5136 65.2282 27.177 54.5994C27.181 53.8845 27.2797 53.177 27.4676 52.4944C27.8403 51.1408 27.7308 49.6004 26.7381 48.6076L21.9519 43.8211ZM26.3609 10.8967C26.574 1.47512 43.6254 0.924561 44.1046 10.8967V20.3715C44.1046 20.3719 44.1043 20.3722 44.1039 20.3722C44.1038 20.3722 44.1038 20.3722 44.1037 20.3722C42.7 20.0119 41.277 19.7372 39.8421 19.5487C38.2593 19.3408 37.0063 18.0375 37.0063 16.441V14.1437C37.0063 13.1638 36.2119 12.3694 35.232 12.3694C34.252 12.3694 33.4576 13.1638 33.4576 14.1437V16.4392C33.4576 18.0364 32.2035 19.34 30.6199 19.5481C30.4637 19.5686 30.3076 19.5902 30.1517 19.6127C28.212 19.8936 26.3603 18.4634 26.3605 16.5034L26.3609 10.8967ZM69.9734 27.5401C69.9736 27.5401 69.9736 27.5399 69.9735 27.5397L60.8706 18.4376C60.1997 17.7429 60.2076 16.6387 60.8888 15.9535C61.5693 15.2683 62.6727 15.2525 63.3729 15.9179L72.4933 25.0382C72.4934 25.0384 72.4933 25.0385 72.4932 25.0385C72.493 25.0385 72.493 25.0387 72.4931 25.0388C73.1606 25.7383 73.1454 26.8431 72.4595 27.5243C71.7736 28.2054 70.6688 28.2126 69.9733 27.5404C69.9732 27.5403 69.9732 27.5401 69.9734 27.5401ZM35.2307 50.0917C36.8277 50.1115 38.2946 50.9749 39.0869 52.3611C39.8798 53.7473 39.8798 55.4495 39.0869 56.8357C38.2948 58.2219 36.8277 59.0854 35.2307 59.1051C33.6338 59.0853 32.1677 58.2218 31.3746 56.8357C30.5816 55.4495 30.5816 53.7473 31.3746 52.3611C32.1675 50.9749 33.6338 50.1114 35.2307 50.0917Z" fill="#7E6745"/>
</svg>
