<svg width="66" height="80" viewBox="0 0 66 80" fill="none" xmlns="http://www.w3.org/2000/svg">
<path d="M65.5948 70.2886C65.5947 70.2885 65.5946 70.2884 65.5946 70.2882V22.0588C65.5946 20.4019 64.2515 19.0588 62.5946 19.0588H51.3391C48.6995 19.0588 46.5393 16.8985 46.5393 14.2589V3.00342C46.5393 1.34656 45.1961 0.00341797 43.5393 0.00341797H9.70909C8.82921 0.00341797 8.10938 0.723257 8.10938 1.60314V70.2888C8.10938 71.1687 8.82921 71.8885 9.70909 71.8885H63.9953C64.875 71.8885 65.5948 71.1688 65.595 70.2891C65.595 70.2889 65.5949 70.2887 65.5948 70.2886ZM-nan -nanL18.5888 9.57052H43.1794C44.0593 9.57052 44.7791 10.2904 44.7791 11.1702C44.7791 12.0662 44.0593 12.77 43.1794 12.77L18.5888 12.7706C17.6928 12.7706 16.9891 12.0669 16.9891 11.1709C16.9884 10.2904 17.6928 9.57052 18.5888 9.57052L-nan -nanZM55.131 63.0887H18.5888C17.6928 63.0887 16.9891 62.3689 16.9891 61.489C16.9891 60.593 17.6928 59.8893 18.5888 59.8893H55.131C56.0109 59.8893 56.7307 60.593 56.7307 61.489C56.7307 62.3689 56.0109 63.0887 55.131 63.0887ZM55.131 50.4972H18.5888C17.6928 50.4972 16.9891 49.7934 16.9891 48.8975C16.9891 48.0176 17.6928 47.2978 18.5888 47.2978H55.131C56.0109 47.2978 56.7307 48.0176 56.7307 48.8975C56.7307 49.7934 56.0109 50.4972 55.131 50.4972ZM55.131 37.9218H18.5888C17.6928 37.9218 16.9891 37.218 16.9891 36.3221C16.9891 35.4422 17.6928 34.7224 18.5888 34.7224H55.131C56.0109 34.7224 56.7307 35.4422 56.7307 36.3221C56.7307 37.218 56.0109 37.9218 55.131 37.9218ZM55.131 25.3464H18.5888C17.6928 25.3464 16.9891 24.6426 16.9891 23.7467C16.9891 22.8668 17.6928 22.147 18.5888 22.147H55.131C56.0109 22.147 56.7307 22.8668 56.7307 23.7467C56.7307 24.642 56.0109 25.3464 55.131 25.3464Z" fill="#7E6745"/>
<path d="M0.000171329 9.71478C0.000108104 9.71472 0 9.71476 0 9.71485V78.4003C0 79.2802 0.719839 80 1.59972 80H55.8859C56.7658 80 57.4856 79.2802 57.4856 78.4003V78.0884C57.4856 76.4315 56.1424 75.0884 54.4856 75.0884H9.71179C7.07222 75.0884 4.91195 72.9281 4.91195 70.2886V11.1152C4.91195 9.45838 3.5688 8.11523 1.91195 8.11523H1.60006C0.720261 8.11523 0.000473264 8.81888 0.000342675 9.71471C0.000342662 9.7148 0.000234553 9.71484 0.000171329 9.71478Z" fill="#7E6745"/>
<path d="M50.7339 0.114902C50.7339 0.11491 50.7339 0.114923 50.7339 0.114928C50.142 0.370729 49.7422 0.946601 49.7422 1.60282V14.2586C49.7422 15.1385 50.462 15.8583 51.3419 15.8583H63.9977C64.6539 15.8583 65.2298 15.4586 65.4856 14.8666C65.7253 14.2586 65.5974 13.5709 65.1334 13.1229L52.4783 0.467107C52.0303 0.0191329 51.3419 -0.12483 50.7339 0.114876C50.7339 0.11488 50.7339 0.114893 50.7339 0.114902Z" fill="#7E6745"/>
</svg>
