<svg width="90" height="90" viewBox="0 0 90 90" fill="none" xmlns="http://www.w3.org/2000/svg">
<path d="M28.5111 80.7992C29.0762 80.2157 29.8538 79.8862 30.6662 79.8862H61.2106C62.1019 79.8862 62.9471 79.4899 63.5171 78.8046L88.1561 49.1815C89.7723 47.4781 90.3846 45.0136 89.7633 42.7167C89.1421 40.4206 87.3817 38.6407 85.1441 38.048C82.9074 37.4544 80.534 38.139 78.9186 39.8432L55.5931 61.3861C55.0389 61.8979 54.3121 62.1822 53.5577 62.1822H40.5747C39.043 62.1822 37.628 61.3386 36.8617 59.9694C36.0962 58.6002 36.0962 56.913 36.8617 55.5431C37.628 54.1739 39.043 53.3304 40.5747 53.3304H51.2916C53.5888 53.3304 55.7111 52.0654 56.8601 50.0107C58.0083 47.9568 58.0083 45.4262 56.8601 43.3723C55.7111 41.3178 53.5888 40.0526 51.2916 40.0526H25.7703C24.958 40.0526 24.1804 40.382 23.6153 40.9655L1.83271 63.4553C0.784309 64.5377 0.701573 66.2299 1.63938 67.4095L17.474 87.3258C18.601 88.7433 20.7175 88.8467 21.9773 87.5458L28.5111 80.7992Z" fill="#7E6745"/>
<path d="M48.979 31.1797C48.9933 31.1945 49.0129 31.2028 49.0335 31.2028C49.054 31.2028 49.0737 31.1945 49.088 31.1797L63.5338 16.2543C65.3346 14.5154 66.3745 12.0965 66.4156 9.551C66.4567 7.00551 65.4954 4.5519 63.7521 2.7513C62.0081 0.951418 59.6317 -0.0411713 57.1662 0.00130958C54.7008 0.0437904 52.358 1.11735 50.6737 2.97675L49.4965 4.15309C49.2244 4.42501 48.7823 4.4214 48.5146 4.14506L47.3833 2.97702C47.3832 2.97692 47.3833 2.97675 47.3834 2.97675C47.3836 2.97675 47.3836 2.97658 47.3835 2.97648C45.6986 1.11733 43.3559 0.0437884 40.8905 0.00130958C38.4251 -0.0411713 36.0486 0.951418 34.3054 2.7513C32.5614 4.55196 31.6007 7.00551 31.6419 9.551C31.683 12.0965 32.7228 14.5153 34.523 16.2543L48.979 31.1797Z" fill="#7E6745"/>
</svg>
